<svg width="8" height="8" viewBox="0 0 8 8" fill="none" xmlns="http://www.w3.org/2000/svg">
<path d="M6.8 0H1.2C0.88174 0 0.576516 0.158035 0.351472 0.43934C0.126428 0.720644 0 1.10218 0 1.5V6.5C0 6.89782 0.126428 7.27936 0.351472 7.56066C0.576516 7.84196 0.88174 8 1.2 8H6.8C7.11826 8 7.42348 7.84196 7.64853 7.56066C7.87357 7.27936 8 6.89782 8 6.5V1.5C8 1.10218 7.87357 0.720644 7.64853 0.43934C7.42348 0.158035 7.11826 0 6.8 0ZM6.636 1L4.284 3.94C4.24681 3.98686 4.20257 4.02406 4.15383 4.04945C4.10509 4.07483 4.0528 4.0879 4 4.0879C3.9472 4.0879 3.89491 4.07483 3.84617 4.04945C3.79743 4.02406 3.75319 3.98686 3.716 3.94L1.364 1H6.636ZM7.2 6.5C7.2 6.63261 7.15786 6.75979 7.08284 6.85355C7.00783 6.94732 6.90609 7 6.8 7H1.2C1.09391 7 0.992172 6.94732 0.917157 6.85355C0.842143 6.75979 0.8 6.63261 0.8 6.5V1.705L3.152 4.645C3.377 4.9259 3.682 5.08368 4 5.08368C4.318 5.08368 4.623 4.9259 4.848 4.645L7.2 1.705V6.5Z" fill="black"/>
</svg>
