<svg width="7" height="6" viewBox="0 0 7 6" fill="none" xmlns="http://www.w3.org/2000/svg">
<path d="M6.73882 2.94322L6.73925 2.94428C6.74619 2.96134 6.75 2.98035 6.75 3C6.75 3.01965 6.74619 3.03866 6.73925 3.05572L6.73882 3.05678C6.05522 4.75791 4.7976 5.75 3.5 5.75C2.2024 5.75 0.944777 4.75791 0.26118 3.05678L0.261183 3.05678L0.26075 3.05572C0.253806 3.03867 0.25 3.01965 0.25 3C0.25 2.98035 0.253806 2.96133 0.26075 2.94428L0.260752 2.94428L0.26118 2.94322C0.944777 1.24209 2.2024 0.25 3.5 0.25C4.7976 0.25 6.05522 1.24209 6.73882 2.94322ZM0.50672 2.90026L0.463327 3L0.50672 3.09974C1.13395 4.54141 2.25339 5.5 3.5 5.5C4.74661 5.5 5.86606 4.54141 6.49328 3.09974L6.53667 3L6.49328 2.90026C5.86606 1.45859 4.74661 0.5 3.5 0.5C2.25339 0.5 1.13395 1.45859 0.50672 2.90026ZM2.62032 3.37713L2.85351 3.28701L2.62032 3.37713C2.69014 3.5578 2.80943 3.71496 2.96568 3.82686C3.12217 3.93893 3.30814 4 3.5 4C3.75771 4 4.00103 3.89012 4.1776 3.70088C4.35361 3.51222 4.44976 3.25984 4.44976 3C4.44976 2.80592 4.39614 2.61493 4.29398 2.45106C4.19173 2.28705 4.04463 2.15647 3.86923 2.0786C3.69356 2.00061 3.49913 1.97987 3.31136 2.01991C3.12375 2.0599 2.95397 2.15811 2.8224 2.29912C2.69101 2.43995 2.60328 2.61734 2.56789 2.80806C2.5325 2.99875 2.55053 3.19656 2.62032 3.37713ZM2.86803 1.95605C3.05677 1.82089 3.27667 1.75 3.5 1.75C3.79906 1.75 4.08968 1.87717 4.30681 2.10989C4.52448 2.34319 4.64951 2.6631 4.64951 3C4.64951 3.25093 4.58001 3.49496 4.4515 3.7011C4.32308 3.90709 4.14231 4.0649 3.93413 4.15733C3.72621 4.24963 3.49854 4.27346 3.2791 4.22667C3.05948 4.17985 2.85522 4.06377 2.69319 3.89011C2.53099 3.71627 2.41879 3.49275 2.37318 3.24702C2.32757 3.00124 2.35111 2.74666 2.44021 2.5161C2.52928 2.28562 2.67906 2.09139 2.86803 1.95605Z" fill="black" stroke="black" stroke-width="0.5"/>
</svg>
