<svg width="8" height="9" viewBox="0 0 8 9" fill="none" xmlns="http://www.w3.org/2000/svg">
<path d="M4 4.95C3.84777 4.9484 3.69866 4.98881 3.57272 5.06579C3.44678 5.14277 3.35007 5.25262 3.29561 5.38056C3.24114 5.50851 3.23153 5.6484 3.26807 5.7814C3.30462 5.91441 3.38556 6.03415 3.5 6.1245V6.75C3.5 6.86935 3.55268 6.98381 3.64645 7.0682C3.74021 7.15259 3.86739 7.2 4 7.2C4.13261 7.2 4.25979 7.15259 4.35355 7.0682C4.44732 6.98381 4.5 6.86935 4.5 6.75V6.1245C4.61444 6.03415 4.69538 5.91441 4.73193 5.7814C4.76847 5.6484 4.75886 5.50851 4.70439 5.38056C4.64993 5.25262 4.55322 5.14277 4.42728 5.06579C4.30134 4.98881 4.15223 4.9484 4 4.95ZM6.5 3.15V2.25C6.5 1.65326 6.23661 1.08097 5.76777 0.65901C5.29893 0.237053 4.66304 0 4 0C3.33696 0 2.70107 0.237053 2.23223 0.65901C1.76339 1.08097 1.5 1.65326 1.5 2.25V3.15C1.10218 3.15 0.720644 3.29223 0.43934 3.54541C0.158035 3.79858 0 4.14196 0 4.5V7.65C0 8.00804 0.158035 8.35142 0.43934 8.60459C0.720644 8.85777 1.10218 9 1.5 9H6.5C6.89782 9 7.27936 8.85777 7.56066 8.60459C7.84196 8.35142 8 8.00804 8 7.65V4.5C8 4.14196 7.84196 3.79858 7.56066 3.54541C7.27936 3.29223 6.89782 3.15 6.5 3.15ZM2.5 2.25C2.5 1.89196 2.65804 1.54858 2.93934 1.29541C3.22064 1.04223 3.60218 0.9 4 0.9C4.39782 0.9 4.77936 1.04223 5.06066 1.29541C5.34196 1.54858 5.5 1.89196 5.5 2.25V3.15H2.5V2.25ZM7 7.65C7 7.76935 6.94732 7.88381 6.85355 7.9682C6.75979 8.05259 6.63261 8.1 6.5 8.1H1.5C1.36739 8.1 1.24021 8.05259 1.14645 7.9682C1.05268 7.88381 1 7.76935 1 7.65V4.5C1 4.38065 1.05268 4.26619 1.14645 4.1818C1.24021 4.09741 1.36739 4.05 1.5 4.05H6.5C6.63261 4.05 6.75979 4.09741 6.85355 4.1818C6.94732 4.26619 7 4.38065 7 4.5V7.65Z" fill="black"/>
</svg>
