<svg width="8" height="8" viewBox="0 0 8 8" fill="none" xmlns="http://www.w3.org/2000/svg">
<path d="M5.48537 4.28373C5.87946 3.97537 6.16711 3.55252 6.30831 3.074C6.4495 2.59549 6.43721 2.0851 6.27315 1.61386C6.10909 1.14261 5.80142 0.733932 5.39294 0.444684C4.98446 0.155436 4.49548 0 3.99404 0C3.49259 0 3.00362 0.155436 2.59514 0.444684C2.18666 0.733932 1.87898 1.14261 1.71492 1.61386C1.55087 2.0851 1.53858 2.59549 1.67977 3.074C1.82096 3.55252 2.10862 3.97537 2.50271 4.28373C1.82742 4.55279 1.23821 4.99906 0.79789 5.57495C0.357569 6.15085 0.082644 6.83478 0.00242465 7.55384C-0.00338205 7.60634 0.00126557 7.65946 0.016102 7.71018C0.0309385 7.76089 0.0556732 7.8082 0.0888941 7.8494C0.155987 7.93262 0.253572 7.98592 0.360183 7.99759C0.466793 8.00925 0.573696 7.97832 0.657373 7.91159C0.74105 7.84487 0.794648 7.74782 0.806375 7.64179C0.894643 6.86032 1.26932 6.13858 1.85883 5.61448C2.44834 5.09037 3.21135 4.80064 4.00208 4.80064C4.7928 4.80064 5.55581 5.09037 6.14532 5.61448C6.73483 6.13858 7.10951 6.86032 7.19778 7.64179C7.20871 7.74002 7.25584 7.83075 7.33007 7.89645C7.40431 7.96216 7.50038 7.99819 7.59976 7.99759H7.64397C7.74934 7.98553 7.84565 7.93254 7.91191 7.85017C7.97817 7.7678 8.00901 7.66273 7.99771 7.55784C7.91711 6.83674 7.64071 6.15105 7.19812 5.57427C6.75554 4.99749 6.16346 4.55137 5.48537 4.28373ZM3.99404 3.99989C3.67603 3.99989 3.36515 3.90611 3.10074 3.7304C2.83632 3.55469 2.63023 3.30495 2.50853 3.01276C2.38683 2.72056 2.35499 2.39904 2.41703 2.08885C2.47907 1.77866 2.63221 1.49373 2.85708 1.2701C3.08195 1.04646 3.36845 0.894163 3.68035 0.832462C3.99225 0.770761 4.31555 0.802428 4.60936 0.923459C4.90316 1.04449 5.15428 1.24945 5.33096 1.51241C5.50764 1.77538 5.60194 2.08455 5.60194 2.40081C5.60194 2.82492 5.43254 3.23165 5.131 3.53153C4.82946 3.83142 4.42048 3.99989 3.99404 3.99989Z" fill="black"/>
</svg>
